# xmcd
#
# Track frame offsets:
#	150
#	12027
#	30005
#	44573
#	58073
#	70681
#	80252
#	90962
#	110869
#	120073
#
# Disc length: 1808 seconds
# Revision: 0
# Processed by: cddbd v1.5.2PL0 Copyright (c) Steve Scherf et al.
# Submitted via: dBpowerAMP V12.0
#
DISCID=69070e0a
DTITLE=Various Artist - All of Me
DYEAR=2016
DGENRE=Boogie Woogie
TTITLE0=Katharina Alber - Lets Fetz
TTITLE1=Texas Stomp
TTITLE2=Welcome Boogie
TTITLE3=Chill Out
TTITLE4=Meade’s Boogie
TTITLE5=Sunny Side Of The Street
TTITLE6=Swanee River
TTITLE7=Boogie Woogie Be With me
TTITLE8=The the A-Train
TTITLE9=All of Me
EXTD=
EXTT0=
EXTT1=
EXTT2=
EXTT3=
EXTT4=
EXTT5=
EXTT6=
EXTT7=
EXTT8=
EXTT9=
PLAYORDER=
